<svg xmlns="http://www.w3.org/2000/svg" width="340" height="160" viewBox="0 0 340 160" role="img" aria-label="Most used languages">
  <rect width="340" height="160" rx="10" fill="#ffffff"/>
  <rect x="0.5" y="0.5" width="339" height="159" rx="10" fill="none" stroke="#e4e2e2" stroke-width="1"/>
  <text x="25" y="28" fill="#2f80ed" font-size="15" font-weight="700" font-family="'Segoe UI',Ubuntu,sans-serif">Most Used Languages</text>
  <line x1="25" y1="36" x2="315" y2="36" stroke="#e4e2e2" stroke-width="0.5"/>
  <!-- Progress bars -->
  <rect x="25" y="55" width="290" height="10" rx="4" fill="#e4e2e2" opacity="0.3"/>
  <rect x="25" y="55" width="83" height="10" fill="#f1e05a"/><rect x="108" y="55" width="83" height="10" fill="#3178c6"/><rect x="191" y="55" width="83" height="10" fill="#3572A5"/><rect x="274" y="55" width="41" height="10" fill="#4F5D95"/>
  <circle cx="20" cy="79" r="5" fill="#f1e05a"/>
  <text x="35" y="83" fill="#434d58" font-size="12" font-family="'Segoe UI',Ubuntu,sans-serif">JavaScript</text>
  <text x="162" y="83" fill="#2f80ed" font-size="12" font-weight="600" font-family="'Segoe UI',Ubuntu,sans-serif" text-anchor="end">28.6%</text><circle cx="180" cy="79" r="5" fill="#3178c6"/>
  <text x="195" y="83" fill="#434d58" font-size="12" font-family="'Segoe UI',Ubuntu,sans-serif">TypeScript</text>
  <text x="322" y="83" fill="#2f80ed" font-size="12" font-weight="600" font-family="'Segoe UI',Ubuntu,sans-serif" text-anchor="end">28.6%</text><circle cx="20" cy="101" r="5" fill="#3572A5"/>
  <text x="35" y="105" fill="#434d58" font-size="12" font-family="'Segoe UI',Ubuntu,sans-serif">Python</text>
  <text x="162" y="105" fill="#2f80ed" font-size="12" font-weight="600" font-family="'Segoe UI',Ubuntu,sans-serif" text-anchor="end">28.6%</text><circle cx="180" cy="101" r="5" fill="#4F5D95"/>
  <text x="195" y="105" fill="#434d58" font-size="12" font-family="'Segoe UI',Ubuntu,sans-serif">PHP</text>
  <text x="322" y="105" fill="#2f80ed" font-size="12" font-weight="600" font-family="'Segoe UI',Ubuntu,sans-serif" text-anchor="end">14.3%</text>
</svg>