<svg xmlns="http://www.w3.org/2000/svg" width="495" height="120" viewBox="0 0 495 120" role="img" aria-label="Most used languages">
  <rect width="495" height="120" rx="10" fill="#1a1b27"/>
  <rect x="0.5" y="0.5" width="494" height="119" rx="10" fill="none" stroke="#38385a" stroke-width="1"/>
  <text x="25" y="28" fill="#70a5fd" font-size="15" font-weight="700" font-family="'Segoe UI',Ubuntu,sans-serif">Most Used Languages</text>
  <line x1="25" y1="36" x2="470" y2="36" stroke="#38385a" stroke-width="0.5"/>
  <!-- Progress bars -->
  <rect x="25" y="70" width="445" height="10" rx="4" fill="#38385a" opacity="0.3"/>
  <rect x="25" y="70" width="127" height="10" fill="#f1e05a"/><rect x="152" y="70" width="127" height="10" fill="#3178c6"/><rect x="279" y="70" width="127" height="10" fill="#3572A5"/><rect x="406" y="70" width="64" height="10" fill="#4F5D95"/>
  <circle cx="25" cy="94" r="5" fill="#f1e05a"/>
  <text x="40" y="98" fill="#cdd6f4" font-size="11" font-family="'Segoe UI',Ubuntu,sans-serif">JavaScript</text>
  <text x="155" y="98" fill="#70a5fd" font-size="11" font-weight="600" font-family="'Segoe UI',Ubuntu,sans-serif" text-anchor="end">28.6%</text><circle cx="175" cy="94" r="5" fill="#3178c6"/>
  <text x="190" y="98" fill="#cdd6f4" font-size="11" font-family="'Segoe UI',Ubuntu,sans-serif">TypeScript</text>
  <text x="305" y="98" fill="#70a5fd" font-size="11" font-weight="600" font-family="'Segoe UI',Ubuntu,sans-serif" text-anchor="end">28.6%</text><circle cx="325" cy="94" r="5" fill="#3572A5"/>
  <text x="340" y="98" fill="#cdd6f4" font-size="11" font-family="'Segoe UI',Ubuntu,sans-serif">Python</text>
  <text x="455" y="98" fill="#70a5fd" font-size="11" font-weight="600" font-family="'Segoe UI',Ubuntu,sans-serif" text-anchor="end">28.6%</text><circle cx="25" cy="112" r="5" fill="#4F5D95"/>
  <text x="40" y="116" fill="#cdd6f4" font-size="11" font-family="'Segoe UI',Ubuntu,sans-serif">PHP</text>
  <text x="155" y="116" fill="#70a5fd" font-size="11" font-weight="600" font-family="'Segoe UI',Ubuntu,sans-serif" text-anchor="end">14.3%</text>
</svg>