<svg xmlns="http://www.w3.org/2000/svg" width="340" height="316" viewBox="0 0 340 316" role="img" aria-label="GitHub achievements">
  <rect width="340" height="316" rx="10" fill="#1a1b27"/>
  <rect x="0.5" y="0.5" width="339" height="315" rx="10" fill="none" stroke="#38385a" stroke-width="1"/>
  
    <g transform="translate(20,10)">
      <rect width="145" height="92" rx="8" fill="#1a1b27" stroke="#e0af68" stroke-width="2" opacity="0.8"/>
      <text x="72.5" y="20" fill="#70a5fd" font-size="12" font-weight="700" text-anchor="middle" font-family="'Segoe UI',Ubuntu,sans-serif">Stars</text>
      <path d="M8 .25a.75.75 0 0 1 .673.418l1.882 3.815 4.21.612a.75.75 0 0 1 .416 1.279l-3.046 2.97.719 4.192a.751.751 0 0 1-1.088.791L8 12.347l-3.766 1.98a.75.75 0 0 1-1.088-.79l.72-4.194L.818 6.374a.75.75 0 0 1 .416-1.28l4.21-.611L7.327.668A.75.75 0 0 1 8 .25Z" fill="#e0af68" transform="translate(47.5,31) scale(1.25)"/>
      <text x="95.5" y="51" fill="#e0af68" font-size="23" font-weight="900" text-anchor="middle" font-family="'Segoe UI',Ubuntu,sans-serif">C</text>
      <text x="72.5" y="78" fill="#cdd6f4" font-size="12" text-anchor="middle" font-family="'Segoe UI',Ubuntu,sans-serif">1</text>
    </g>
    <g transform="translate(175,10)">
      <rect width="145" height="92" rx="8" fill="#1a1b27" stroke="#e0af68" stroke-width="2" opacity="0.8"/>
      <text x="72.5" y="20" fill="#70a5fd" font-size="12" font-weight="700" text-anchor="middle" font-family="'Segoe UI',Ubuntu,sans-serif">Forks</text>
      <path d="M5 5.372v.878c0 .414.336.75.75.75h4.5a.75.75 0 0 0 .75-.75v-.878a2.25 2.25 0 1 1 1.5 0v.878a2.25 2.25 0 0 1-2.25 2.25h-1.5v2.128a2.251 2.251 0 1 1-1.5 0V8.5h-1.5A2.25 2.25 0 0 1 3.5 6.25v-.878a2.25 2.25 0 1 1 1.5 0Z" fill="#e0af68" transform="translate(47.5,31) scale(1.25)"/>
      <text x="95.5" y="51" fill="#e0af68" font-size="23" font-weight="900" text-anchor="middle" font-family="'Segoe UI',Ubuntu,sans-serif">C</text>
      <text x="72.5" y="78" fill="#cdd6f4" font-size="12" text-anchor="middle" font-family="'Segoe UI',Ubuntu,sans-serif">0</text>
    </g>
    <g transform="translate(20,112)">
      <rect width="145" height="92" rx="8" fill="#1a1b27" stroke="#e0af68" stroke-width="2" opacity="0.8"/>
      <text x="72.5" y="20" fill="#70a5fd" font-size="12" font-weight="700" text-anchor="middle" font-family="'Segoe UI',Ubuntu,sans-serif">Followers</text>
      <g transform="translate(47.5,31) scale(1.25)" fill="#e0af68"><circle cx="5" cy="5" r="3"/><circle cx="11.5" cy="6" r="2.5"/><path d="M0 15c0-3.2 2-5 5-5s5 1.8 5 5H0Zm8.5 0c0-1.8-.5-3.2-1.5-4.2 1-.6 2.1-.8 3.4-.8 3.1 0 5.1 1.8 5.1 5h-7Z"/></g>
      <text x="95.5" y="51" fill="#e0af68" font-size="23" font-weight="900" text-anchor="middle" font-family="'Segoe UI',Ubuntu,sans-serif">C</text>
      <text x="72.5" y="78" fill="#cdd6f4" font-size="12" text-anchor="middle" font-family="'Segoe UI',Ubuntu,sans-serif">1</text>
    </g>
    <g transform="translate(175,112)">
      <rect width="145" height="92" rx="8" fill="#1a1b27" stroke="#9ece6a" stroke-width="2" opacity="0.8"/>
      <text x="72.5" y="20" fill="#70a5fd" font-size="12" font-weight="700" text-anchor="middle" font-family="'Segoe UI',Ubuntu,sans-serif">Repos</text>
      <path d="M2 2.5A2.5 2.5 0 0 1 4.5 0h8.75a.75.75 0 0 1 .75.75v12.5a.75.75 0 0 1-.75.75h-2.5a.75.75 0 0 1 0-1.5h1.75v-2h-8a1 1 0 0 0-.714 1.7.75.75 0 1 1-1.072 1.05A2.5 2.5 0 0 1 2 11.5Zm10.5-1h-8a1 1 0 0 0-1 1v6.708A2.5 2.5 0 0 1 4.5 9h8Z" fill="#9ece6a" transform="translate(47.5,31) scale(1.25)"/>
      <text x="95.5" y="51" fill="#9ece6a" font-size="23" font-weight="900" text-anchor="middle" font-family="'Segoe UI',Ubuntu,sans-serif">B</text>
      <text x="72.5" y="78" fill="#cdd6f4" font-size="12" text-anchor="middle" font-family="'Segoe UI',Ubuntu,sans-serif">9</text>
    </g>
    <g transform="translate(20,214)">
      <rect width="145" height="92" rx="8" fill="#1a1b27" stroke="#ff9e64" stroke-width="2" opacity="0.8"/>
      <text x="72.5" y="20" fill="#70a5fd" font-size="12" font-weight="700" text-anchor="middle" font-family="'Segoe UI',Ubuntu,sans-serif">Languages</text>
      <path d="M5.22 3.22a.75.75 0 0 1 1.06 1.06L2.56 8l3.72 3.72a.75.75 0 1 1-1.06 1.06l-4.25-4.25a.75.75 0 0 1 0-1.06Zm5.56 0 4.25 4.25a.75.75 0 0 1 0 1.06l-4.25 4.25a.75.75 0 1 1-1.06-1.06L13.44 8 9.72 4.28a.75.75 0 1 1 1.06-1.06Z" fill="#ff9e64" transform="translate(47.5,31) scale(1.25)"/>
      <text x="95.5" y="51" fill="#ff9e64" font-size="23" font-weight="900" text-anchor="middle" font-family="'Segoe UI',Ubuntu,sans-serif">A</text>
      <text x="72.5" y="78" fill="#cdd6f4" font-size="12" text-anchor="middle" font-family="'Segoe UI',Ubuntu,sans-serif">4</text>
    </g>
    <g transform="translate(175,214)">
      <rect width="145" height="92" rx="8" fill="#1a1b27" stroke="#ff9e64" stroke-width="2" opacity="0.8"/>
      <text x="72.5" y="20" fill="#70a5fd" font-size="12" font-weight="700" text-anchor="middle" font-family="'Segoe UI',Ubuntu,sans-serif">Featured</text>
      <path d="M8 .75 10.15 5.85 15.25 8l-5.1 2.15L8 15.25l-2.15-5.1L.75 8l5.1-2.15Z" fill="#ff9e64" transform="translate(47.5,31) scale(1.25)"/>
      <text x="95.5" y="51" fill="#ff9e64" font-size="23" font-weight="900" text-anchor="middle" font-family="'Segoe UI',Ubuntu,sans-serif">A</text>
      <text x="72.5" y="78" fill="#cdd6f4" font-size="12" text-anchor="middle" font-family="'Segoe UI',Ubuntu,sans-serif">4</text>
    </g>
</svg>